<svg id="Layer_1" data-name="Layer 1" xmlns="http://www.w3.org/2000/svg" width="123.57" height="25" viewBox="0 0 123.57 25"><defs><style>.cls-1{fill:#fafafa;}</style></defs><title>logo-white</title><path class="cls-1" d="M21.87,18A8.16,8.16,0,0,0,28,20.57a7.15,7.15,0,0,0,5.21-1.86,7.27,7.27,0,0,0,1.89-5.35V.88a.61.61,0,0,0-.61-.61H31.23a.61.61,0,0,0-.61.61V13.17c0,2.32-1,3.32-2.69,3.32a4.51,4.51,0,0,1-3.22-1.54.61.61,0,0,0-.89,0l-2,2.19A.61.61,0,0,0,21.87,18ZM37.6,12.71v-.06a8,8,0,0,1,8.32-8,8,8,0,0,1,8.27,7.92v.06a8,8,0,0,1-8.32,8A8,8,0,0,1,37.6,12.71Zm12.3,0v-.06a4.07,4.07,0,0,0-4-4.23,3.93,3.93,0,0,0-4,4.18v.06a4.07,4.07,0,0,0,4,4.23A3.93,3.93,0,0,0,49.9,12.71Zm20.6,0v-.06c0-4.38,3.12-8,7.58-8,5.12,0,7.47,4,7.47,8.32,0,.18,0,.37,0,.57a.61.61,0,0,1-.61.57H74.81a3.56,3.56,0,0,0,3.75,3,4.83,4.83,0,0,0,3.33-1.23.61.61,0,0,1,.79,0l1.63,1.44a.61.61,0,0,1,0,.88,8.11,8.11,0,0,1-13.86-5.54Zm10.81-1.29C81,9.48,79.9,8.16,78.07,8.16s-3,1.29-3.32,3.26Zm6.51-5.85V19.68a.61.61,0,0,0,.61.61h3.12a.61.61,0,0,0,.61-.61V11.74c0-2.06,1.3-3.62,3-3.62S97.51,9,97.51,11v8.66a.61.61,0,0,0,.61.61h3.12a.61.61,0,0,0,.61-.61V10.36c0-3.52-1.92-5.69-5.21-5.69a5.42,5.42,0,0,0-4.49,2.46V5.57A.61.61,0,0,0,91.55,5H88.42A.61.61,0,0,0,87.81,5.57Zm23.06,15a6.5,6.5,0,0,0,3.09-.7.62.62,0,0,0,.34-.55V17.09a.61.61,0,0,0-.81-.58,4.47,4.47,0,0,1-1.34.2c-1,0-1.4-.49-1.4-1.49V8.68h3a.61.61,0,0,0,.61-.61V5.57a.61.61,0,0,0-.61-.61h-3V1.65a.61.61,0,0,0-.61-.61H107a.61.61,0,0,0-.61.61V5h-1.63a.61.61,0,0,0-.61.61V8.06a.61.61,0,0,0,.61.61h1.63v7.27C106.41,19.49,108.22,20.55,110.88,20.55ZM10.32,0A10.32,10.32,0,1,0,20.64,10.32,10.32,10.32,0,0,0,10.32,0Zm6.46,11.77a.45.45,0,0,1-.45.45H12.23v4.09a.45.45,0,0,1-.45.45H8.86a.45.45,0,0,1-.45-.45V12.23H4.32a.45.45,0,0,1-.45-.45V8.86a.45.45,0,0,1,.45-.45H8.41V4.32a.45.45,0,0,1,.45-.45h2.91a.45.45,0,0,1,.45.45V8.41h4.09a.45.45,0,0,1,.45.45ZM69.35,5H66.16a.61.61,0,0,0-.58.43l-3.14,9.89-3.22-9.9A.61.61,0,0,0,58.63,5H55.16a.61.61,0,0,0-.57.83L60.13,20c.26.65-.28,1.36-1.24,1.36a9.88,9.88,0,0,1-2-.24.61.61,0,0,0-.81.58v2.21a.62.62,0,0,0,.34.55,6.83,6.83,0,0,0,3.16.56c2.73,0,3.64-1.74,4.75-4.34L69.92,5.78A.61.61,0,0,0,69.35,5ZM119,4.32h-.54V1.61h-.92V1.15h2.39v.47H119Zm2.64,0-.88-2.46h0l0,.57V4.32h-.52V1.15H121l.86,2.46.89-2.46h.79V4.32H123V2.47l0-.6h0l-.93,2.45Z"/></svg>